<svg width="18" height="18" viewBox="0 0 18 18" fill="none" xmlns="http://www.w3.org/2000/svg">
<path fill-rule="evenodd" clip-rule="evenodd" d="M4.71938 8.03063C4.50463 7.81612 4.44035 7.49332 4.55653 7.21291C4.67272 6.9325 4.94647 6.74976 5.25 6.75H8.25V0.75C8.25 0.335786 8.58579 0 9 0C9.41421 0 9.75 0.335786 9.75 0.75V6.75H12.75C13.0535 6.74976 13.3273 6.9325 13.4435 7.21291C13.5597 7.49332 13.4954 7.81612 13.2806 8.03063L9.53063 11.7806C9.38995 11.9215 9.19906 12.0006 9 12.0006C8.80094 12.0006 8.61005 11.9215 8.46937 11.7806L4.71938 8.03063ZM17.25 10.5C16.8358 10.5 16.5 10.8358 16.5 11.25V16.5H1.5V11.25C1.5 10.8358 1.16421 10.5 0.75 10.5C0.335786 10.5 0 10.8358 0 11.25V16.5C0 17.3284 0.671573 18 1.5 18H16.5C17.3284 18 18 17.3284 18 16.5V11.25C18 10.8358 17.6642 10.5 17.25 10.5Z" fill="#0D141C"/>
</svg>
