<svg width="24" height="22" viewBox="0 0 24 22" fill="none" xmlns="http://www.w3.org/2000/svg">
<path fill-rule="evenodd" clip-rule="evenodd" d="M16.5 17.4287C17.0174 17.2249 17.5188 16.9827 18 16.7041V20.5C18 20.9142 17.6642 21.25 17.25 21.25C16.8358 21.25 16.5 20.9142 16.5 20.5V17.4287ZM17.6025 9.13844L12.3525 6.33813C11.9881 6.15199 11.5417 6.29232 11.3494 6.65349C11.157 7.01466 11.2897 7.46336 11.6475 7.66187L16.0312 10L17.625 9.15063L17.6025 9.13844ZM23.6025 6.33813L12.3525 0.338125C12.1321 0.220791 11.8679 0.220791 11.6475 0.338125L0.3975 6.33813C0.152987 6.46843 0.000234297 6.72293 0.000234297 7C0.000234297 7.27707 0.152987 7.53157 0.3975 7.66187L3 9.05031V13.5897C2.99922 13.9581 3.1348 14.3137 3.38063 14.5881C4.60875 15.9559 7.36031 18.25 12 18.25C13.5384 18.2627 15.0653 17.9841 16.5 17.4287V10.2503L16.0312 10L12 12.1497L4.10906 7.9375L2.34375 7L12 1.85031L21.6562 7L19.8956 7.9375H19.89L17.625 9.15063C17.8571 9.28463 18.0001 9.5323 18 9.80031V16.7041C18.978 16.1395 19.8618 15.4256 20.6194 14.5881C20.8652 14.3137 21.0008 13.9581 21 13.5897V9.05031L23.6025 7.66187C23.847 7.53157 23.9998 7.27707 23.9998 7C23.9998 6.72293 23.847 6.46843 23.6025 6.33813Z" fill="#0D141C"/>
</svg>
