<svg width="24" height="24" viewBox="0 0 24 24" fill="none" xmlns="http://www.w3.org/2000/svg">
<path fill-rule="evenodd" clip-rule="evenodd" d="M21.6497 20.6246C21.5156 20.8567 21.268 20.9997 21 20.9996H2.99996C2.73215 20.9993 2.48481 20.8563 2.35102 20.6243C2.21723 20.3923 2.21731 20.1066 2.35121 19.8746C3.77903 17.4062 5.97934 15.6362 8.54715 14.7971C5.93641 13.2429 4.68581 10.136 5.49178 7.20652C6.29775 4.27703 8.96163 2.24707 12 2.24707C15.0383 2.24707 17.7022 4.27703 18.5081 7.20652C19.3141 10.136 18.0635 13.2429 15.4528 14.7971C18.0206 15.6362 20.2209 17.4062 21.6487 19.8746C21.783 20.1065 21.7833 20.3924 21.6497 20.6246Z" fill="#0D141C"/>
</svg>
