<svg width="24" height="24" viewBox="0 0 24 24" fill="none" xmlns="http://www.w3.org/2000/svg">
<path fill-rule="evenodd" clip-rule="evenodd" d="M12 8.24991C9.92893 8.24991 8.25 9.92884 8.25 11.9999C8.25 14.071 9.92893 15.7499 12 15.7499C14.0711 15.7499 15.75 14.071 15.75 11.9999C15.75 9.92884 14.0711 8.24991 12 8.24991ZM12 14.2499C10.7574 14.2499 9.75 13.2425 9.75 11.9999C9.75 10.7573 10.7574 9.74991 12 9.74991C13.2426 9.74991 14.25 10.7573 14.25 11.9999C14.25 13.2425 13.2426 14.2499 12 14.2499ZM18.9103 14.9193C18.5881 15.6811 18.1421 16.3843 17.5903 17.0005C17.3123 17.3013 16.8445 17.3235 16.5393 17.0503C16.2341 16.7772 16.2045 16.3097 16.4728 16.0002C18.5119 13.7235 18.5119 10.2773 16.4728 8.00053C16.289 7.80166 16.2267 7.51917 16.3098 7.26143C16.3928 7.00369 16.6084 6.81075 16.8737 6.75663C17.139 6.7025 17.4129 6.79561 17.5903 7.00022C19.5233 9.1632 20.0372 12.2463 18.9103 14.9193ZM6.46875 9.6646C5.56546 11.8029 5.97658 14.2703 7.52438 16.0002C7.79265 16.3097 7.76306 16.7772 7.45789 17.0503C7.15273 17.3235 6.68486 17.3013 6.40688 17.0005C3.85726 14.1546 3.85726 9.84613 6.40688 7.00022C6.6831 6.69085 7.15782 6.66399 7.46719 6.94022C7.77655 7.21645 7.80342 7.69117 7.52719 8.00053C7.08469 8.4928 6.72701 9.05514 6.46875 9.6646ZM23.25 11.9999C23.2545 14.9453 22.0998 17.7741 20.0353 19.8749C19.8494 20.0737 19.5704 20.1561 19.3062 20.0903C19.0421 20.0245 18.8344 19.8208 18.7635 19.558C18.6925 19.2953 18.7696 19.0147 18.9647 18.8249C22.6834 15.0362 22.6834 8.96738 18.9647 5.17866C18.6737 4.88301 18.6775 4.40746 18.9731 4.11647C19.2688 3.82549 19.7443 3.82926 20.0353 4.12491C22.0998 6.22569 23.2545 9.05453 23.25 11.9999ZM5.03531 18.823C5.22321 19.0143 5.29481 19.2912 5.22313 19.5496C5.15146 19.8079 4.9474 20.0084 4.68782 20.0755C4.42824 20.1426 4.15259 20.0662 3.96469 19.8749C-0.329686 15.5031 -0.329686 8.49673 3.96469 4.12491C4.15062 3.92612 4.42965 3.84367 4.69376 3.90947C4.95787 3.97528 5.1656 4.17901 5.23653 4.44179C5.30745 4.70457 5.23045 4.98515 5.03531 5.17491C1.31661 8.96363 1.31661 15.0324 5.03531 18.8212V18.823Z" fill="#0D141C"/>
</svg>
