<svg width="48" height="48" viewBox="0 0 48 48" fill="none" xmlns="http://www.w3.org/2000/svg">
<rect width="48" height="48" rx="8" fill="#B8144A" fill-opacity="0.2"/>
<g clip-path="url(#clip0_4_894)">
<path fill-rule="evenodd" clip-rule="evenodd" d="M27.4163 21.8756L22.9163 18.8756C22.6861 18.722 22.39 18.7077 22.146 18.8383C21.902 18.9689 21.7498 19.2233 21.75 19.5V25.5C21.7498 25.7767 21.902 26.0311 22.146 26.1617C22.39 26.2923 22.6861 26.278 22.9163 26.1244L27.4163 23.1244C27.6252 22.9853 27.7507 22.751 27.7507 22.5C27.7507 22.249 27.6252 22.0147 27.4163 21.8756ZM23.25 24.0984V20.9062L25.6481 22.5L23.25 24.0984ZM32.25 15.75H15.75C14.9216 15.75 14.25 16.4216 14.25 17.25V27.75C14.25 28.5784 14.9216 29.25 15.75 29.25H32.25C33.0784 29.25 33.75 28.5784 33.75 27.75V17.25C33.75 16.4216 33.0784 15.75 32.25 15.75ZM32.25 27.75H15.75V17.25H32.25V27.75ZM33.75 31.5C33.75 31.9142 33.4142 32.25 33 32.25H15C14.5858 32.25 14.25 31.9142 14.25 31.5C14.25 31.0858 14.5858 30.75 15 30.75H33C33.4142 30.75 33.75 31.0858 33.75 31.5Z" fill="#141217"/>
</g>
<defs>
<clipPath id="clip0_4_894">
<rect width="24" height="24" fill="white" transform="translate(12 12)"/>
</clipPath>
</defs>
</svg>
